<?xml version="1.0" encoding="utf-8"?>
<!-- Generator: Adobe Illustrator 23.0.0, SVG Export Plug-In . SVG Version: 6.00 Build 0)  -->
<svg version="1.1" id="Capa_1" focusable="false" xmlns="http://www.w3.org/2000/svg" xmlns:xlink="http://www.w3.org/1999/xlink"
	 x="0px" y="0px" viewBox="0 0 640 512" style="enable-background:new 0 0 640 512;" xml:space="preserve">
<style type="text/css">
	.st0{fill:#2D347B;}
	.st1{fill:#F9EA44;}
	.st2{fill:#FFFFFF;}
</style>
<g>
	<g>
		<path class="st0" d="M640,253c0-115-143.2-209.1-320-209.1C143.2,43.9,0,138,0,253c0,2.7,0,11.4,0,12.1
			c0,122.3,125,221.2,320,221.2c195.6,0,320-98.8,320-221.2C640,261,640,259,640,253z"/>
		<path class="st1" d="M628.6,253c0,108.2-137.8,196.3-307.2,196.3c-169.4,0-307.2-88.1-307.2-196.3
			c0-108.2,137.8-196.3,307.2-196.3C490.8,56.7,628.6,144.8,628.6,253z"/>
		<g>
			<path class="st2" d="M219.2,191.1c0,0-3.4,3.4-1.3,6.1c4.7,6,19.5,9.4,35,6c8.7-2,20.9-11.4,31.6-20.2
				c12.1-9.4,24.2-19.5,36.3-22.8c12.8-4,20.8-2,26.2-0.7c6.1,2,12.8,6.1,24.2,14.1c20.8,15.5,105.6,89.4,120.3,102.2
				c11.4-5.4,63.9-27.6,135.1-43.7c-6-37.6-28.9-72.6-63.8-100.8c-48.4,20.2-108.2,30.9-166.7,2.7c0,0-31.6-14.8-63.2-14.1
				c-46.4,1.3-65.9,20.8-87.4,42.4L219.2,191.1z"/>
			<path class="st2" d="M488.1,283.9c-0.7-0.7-99.5-86.7-121.7-103.5c-12.8-9.4-20.2-12.1-27.6-13.4c-4-0.7-9.4,0-13.4,1.3
				c-10.1,2.7-24.2,12.1-36.3,21.5c-12.8,10.1-24.2,19.5-35,21.5c-14.1,3.4-30.9-0.7-38.3-6c-3.4-2-5.4-4.7-6.7-7.4
				c-2.7-6.7,2.7-12.1,3.4-12.8l26.9-29.6c3.4-3.4,6-6.1,9.4-9.4c-8.7,1.3-16.8,3.4-24.9,5.4c-10.1,2.7-19.5,5.4-28.9,5.4
				c-4,0-25.5-3.4-29.6-4.7c-24.9-6.7-46.4-13.4-78.6-28.2c-38.3,28.9-64.6,64.5-72,104.2c5.4,1.4,14.8,4,18.2,4.7
				c87.4,19.5,114.3,39.7,119.7,43.7c5.4-6,12.8-9.4,21.5-9.4c9.4,0,18.2,4.7,23.5,12.1c4.7-4,12.1-7.4,20.8-7.4c4,0,8.1,0.7,12.8,2
				c10.1,3.4,14.8,10.1,17.5,16.1c3.4-1.3,7.4-2.7,12.1-2.7c4.7,0,9.4,1.3,14.8,3.4c16.1,6.7,18.8,22.9,17.5,35c1.3,0,2,0,3.4,0
				c19.5,0,35,15.5,35,35c0,6-1.4,11.4-4,16.1c5.4,2.7,18.1,9.4,30.2,8.1c9.4-1.3,12.8-4,14.1-6.1c0.7-1.3,2-2.7,0.7-4l-24.9-27.6
				c0,0-4-4-2.7-5.4c1.3-1.3,4,0.7,6.1,2c12.7,10.8,27.6,26.2,27.6,26.2s1.3,2,6.7,3.4c4.7,0.7,13.5,0,19.5-4.7c1.3-1.3,3.4-2.7,4-4
				l0,0c6.1-8.1-0.7-16.1-0.7-16.1l-28.9-32.3c0,0-4-4-2.7-5.4c1.3-1.3,4,0.7,6,2c9.4,7.4,22.2,20.8,34.3,32.9
				c2.7,2,13.4,8.7,27.6-0.7c8.7-6,10.8-12.8,10.1-18.1c-0.7-6.7-6.1-12.1-6.1-12.1l-39-39.7c0,0-4-3.4-2.7-5.4c1.3-1.3,4,0.7,6,2
				c12.8,10.7,46.4,41.7,46.4,41.7c0.7,0,12.1,8.7,26.9-0.7c5.4-3.4,8.7-8.1,8.7-14.1C495.4,290,488.1,283.9,488.1,283.9z"/>
			<path class="st2" d="M297.8,334.3c-6,0-12.8,3.3-13.4,3.3c-0.7,0,0-2.7,0.7-4c0.7-1.3,8.7-25.5-10.8-34.3
				c-14.8-6.7-24.2,0.7-26.9,4c-0.7,0.7-1.3,0.7-1.3,0c0-4-2-16.1-15.5-20.2c-18.8-6.1-30.3,7.4-33.6,12.1
				c-1.4-10.8-10.1-18.8-21.5-18.8c-12.1,0-21.5,9.4-21.5,21.5c0,12.1,9.4,21.5,21.5,21.5c6.1,0,10.8-2,14.8-6.1c0,0,0,0,0,0.7
				c-0.7,5.4-2.7,24.9,17.5,32.3c8.1,3.4,14.8,0.7,20.8-3.4c2-1.3,2-0.7,2,0.7c-0.7,4.7,0,15.5,15.5,21.5c11.4,4.7,18.1,0,22.2-4
				c2-2,2.7-1.3,2.7,1.3c0.7,14.1,12.8,25.5,26.9,25.5c14.8,0,26.9-12.1,26.9-26.9C324.7,346.4,312.6,334.3,297.8,334.3z"/>
		</g>
		<path class="st0" d="M492.1,273.8c-30.3-26.2-100.2-87.4-119.6-101.5c-10.8-8.1-18.2-12.8-24.9-14.1c-2.7-0.7-6.7-2-12.1-2
			c-4.7,0-10.1,0.7-15.5,2.7c-12.1,4-24.2,13.4-36.3,22.9l-0.7,0.7c-10.8,8.7-22.2,17.5-30.9,19.5c-4,0.7-7.4,1.3-11.4,1.3
			c-9.4,0-18.2-2.7-21.5-6.7c-0.7-0.7,0-2,1.3-3.4l0,0l26.9-28.9c20.9-20.8,40.3-40.3,86.1-41.7c0.7,0,1.4,0,2,0
			c28.2,0,56.5,12.8,59.8,14.1c26.9,12.8,53.8,19.5,81.4,19.5c28.9,0,58.5-7.4,89.4-21.5c-3.4-2.7-7.4-6.1-10.8-8.7
			c-27.6,12.1-53.1,17.5-78.7,17.5c-25.6,0-51.1-6.1-76-18.2c-1.3-0.7-32.3-15.5-65.2-15.5c-0.7,0-2,0-2.7,0
			c-38.3,0.7-59.8,14.1-74,26.2c-14.1,0-26.2,4-37,6.7c-9.4,2.7-18.1,4.7-26.2,4.7c-3.3,0-9.4,0-10.1,0c-9.4,0-56.5-11.4-93.5-26.2
			c-4,2.7-7.4,5.4-11.4,8.1c39,16.1,86.7,28.2,101.5,29.6c4,0,8.7,0.7,13.4,0.7c10.1,0,19.5-2.7,29.6-5.4c6-1.4,12.1-3.4,18.1-4.7
			c-2,2-3.4,3.4-5.4,5.4l-26.9,29.6c-2,2-6.7,8.1-4,14.8c1.3,2.7,4,5.4,7.4,8.1c6.7,4,18.1,7.4,28.9,7.4c4,0,8.1-0.7,11.4-1.3
			c11.4-2.7,23.5-12.1,35.6-22.2c10.1-8.1,24.2-18.1,35-21.5c3.4-0.7,6.7-1.3,10.1-1.3c0.7,0,2,0,2.7,0c7.4,0.7,14.1,3.4,26.9,12.8
			c22.2,16.8,121,102.9,121.7,103.5c0,0,6,5.4,6,14.8c0,4.7-3.4,9.4-8.1,12.8c-4,2.7-8.7,4-12.8,4c-6.7,0-11.4-3.4-11.4-3.4
			s-34.3-30.9-46.4-41.7c-2-2-4-3.4-6-3.4c-1.4,0-2,0.7-2.7,1.3c-2,2.7,0,6.1,2.7,8.1l39.7,39.7c0,0,4.7,4.7,5.4,10.7
			c0,6.8-2.7,12.1-9.4,16.1c-4.7,3.4-9.4,4.7-14.1,4.7c-6.1,0-10.1-2.7-11.4-3.4l-6-5.4c-10.1-10.1-20.9-20.8-28.9-26.9
			c-2-1.3-4-3.4-6-3.4c-0.7,0-2,0-2.7,1.3c-0.7,0.7-1.4,2.7,0.6,6.1c0.7,1.3,2,2,2,2l28.9,32.2c0,0,6.1,7.4,0.7,13.5l-1.3,1.3
			c-0.7,0.7-2,2-2.7,2.7c-4.7,4-11.4,4.7-14.1,4.7c-1.4,0-2.7,0-4,0c-2.7-0.7-4.7-1.3-6-2.7l0,0c-1.3-2-16.1-16.1-28.2-26.2
			c-1.3-1.3-3.4-2.7-5.4-2.7c-0.7,0-2,0.7-2.7,1.3c-2,2.7,1.4,6.7,2.7,8.1l24.8,26.9c0,0,0,0.7-0.7,2c-0.7,1.4-4,4-12.8,5.4
			c-1.3,0-2,0-3.4,0c-9.4,0-18.8-4.7-24.2-7.4c2-4.7,3.4-10.1,3.4-15.5c0-20.2-16.1-36.3-36.3-36.3c-0.7,0-0.7,0-1.3,0
			c0.7-9.4-0.7-26.9-18.8-34.3c-5.4-2-10.1-3.4-15.5-3.4c-4,0-7.4,0.7-11.4,2c-4-7.4-10.1-12.8-18.1-15.5c-4.7-1.3-8.7-2-13.5-2
			c-7.4,0-14.1,2-20.2,6.7c-6-7.4-14.8-11.4-24.2-11.4c-8.1,0-16.1,3.4-21.5,8.7c-7.4-6.1-37.6-24.9-119-43.7
			c-4-0.7-12.8-3.4-18.2-5.4c-0.7,4-1.3,8.7-2,13.5c0,0,14.8,3.4,18.1,4c82.7,18.2,110.3,37.6,115,41c-1.3,4-2,8.1-2,12.1
			c0,17.5,14.1,30.9,30.9,30.9c2,0,4,0,6.1-0.7c2.7,12.8,10.8,22.2,23.5,26.9c4,1.3,7.4,2,10.8,2c2,0,4.7,0,7.4-0.7
			c2,6.1,7.4,13.4,19.5,18.2c4,2,8.1,2.7,12.1,2.7c3.4,0,6.7-0.7,9.4-2c5.4,13.4,18.8,22.9,33.6,22.9c10.1,0,19.5-4,26.2-11.4
			c6.1,3.4,18.1,9.4,30.9,9.4c2,0,3.4,0,4.7,0c12.8-1.3,18.2-6.7,20.8-10.1c0.7-0.7,0.7-1.3,1.3-2c2.7,0.7,6.1,1.3,10.1,1.3
			c6.7,0,13.4-2,20.2-7.4c6.8-4.7,11.4-11.4,11.4-17.5l0,0c2,0.7,4.7,0.7,6.7,0.7c6.7,0,14.1-2,20.8-6.7
			c12.8-8.1,14.8-19.5,14.8-26.2c2,0.7,4.7,0.7,6.7,0.7c6.7,0,13.4-2,19.5-6c8.1-5.4,12.8-12.8,13.4-21.5c0.7-6-1.3-12.1-4-17.5
			c21.5-9.4,69.9-26.9,127.7-40.3c0-4.7-0.7-8.7-2-13.4C556.6,245.6,504.9,267.8,492.1,273.8z M297.8,386.1
			c-13.4,0-24.2-10.8-24.9-24.2c0-1.3,0-4-2.7-4c-1.4,0-2,0.7-3.4,1.3c-2.7,2.7-6.7,5.4-12.1,5.4c-2.7,0-5.4-0.7-8.1-2
			c-14.1-6.1-14.8-15.5-14.1-19.5c0-1.3,0-2-0.7-2.7l-0.7-0.7h-0.7c-0.7,0-1.4,0-2.7,1.3c-4,2.7-8.1,4-12.1,4c-2,0-4.7-0.7-6.7-1.3
			c-18.8-7.4-17.5-24.9-16.1-30.2c0-1.4,0-2-0.7-2.7l-1.3-1.3l-1.4,1.3c-4,3.4-8.7,5.4-13.5,5.4c-10.8,0-19.5-8.7-19.5-19.5
			s8.7-19.5,19.5-19.5c9.4,0,18.2,7.4,19.5,16.8l0.7,5.4l2.7-4.7c0-0.7,8.1-12.8,22.9-12.1c2.7,0,5.4,0.7,8.7,1.4
			C242,287.3,244,298,244,302.1c0,2.7,2,2.7,2,2.7c0.7,0,2-0.7,2-1.3c2-2,6.7-6,14.1-6c3.4,0,6.7,0.7,10.8,2.7
			c18.2,8.1,10.1,30.9,10.1,31.6c-1.4,4-2,5.4,0,6.8h0.7h0.7c0.7,0,2,0,3.3-0.7c2.7-0.7,6.1-2,9.4-2l0,0c13.4,0,24.9,11.4,24.9,24.9
			C322.7,375.3,311.3,386.1,297.8,386.1z"/>
	</g>
</g>
</svg>
